<svg height="1534" width="720" xmlns="http://www.w3.org/2000/svg">
<rect height="1534" fill="#555" width="720"></rect>
<text fill="#7f7" font-family="Courier New" font-size="12" xml:space="preserve">
<tspan x="10" y="26">11 megabytes installed</tspan>
<tspan x="10" y="42"></tspan>
<tspan x="10" y="58">node_modules</tspan>
<tspan x="10" y="74">└─┬ restful@0.4.5 </tspan>
<tspan x="10" y="90">  ├── director@1.2.8 </tspan>
<tspan x="10" y="106">  ├─┬ director-explorer@0.2.0 </tspan>
<tspan x="10" y="122">  │ ├── director@1.1.10 </tspan>
<tspan x="10" y="138">  │ └── traverse@0.6.1 </tspan>
<tspan x="10" y="154">  ├── qs@6.4.0 </tspan>
<tspan x="10" y="170">  ├─┬ resourceful@0.3.5 </tspan>
<tspan x="10" y="186">  │ ├── async@0.9.2 </tspan>
<tspan x="10" y="202">  │ ├─┬ cradle@0.6.9 </tspan>
<tspan x="10" y="218">  │ │ ├─┬ follow@0.11.4 </tspan>
<tspan x="10" y="234">  │ │ │ ├── browser-request@0.3.3 </tspan>
<tspan x="10" y="250">  │ │ │ └── debug@0.7.4 </tspan>
<tspan x="10" y="266">  │ │ ├─┬ request@2.81.0 </tspan>
<tspan x="10" y="282">  │ │ │ ├── aws-sign2@0.6.0 </tspan>
<tspan x="10" y="298">  │ │ │ ├── aws4@1.6.0 </tspan>
<tspan x="10" y="314">  │ │ │ ├── caseless@0.12.0 </tspan>
<tspan x="10" y="330">  │ │ │ ├─┬ combined-stream@1.0.5 </tspan>
<tspan x="10" y="346">  │ │ │ │ └── delayed-stream@1.0.0 </tspan>
<tspan x="10" y="362">  │ │ │ ├── extend@3.0.0 </tspan>
<tspan x="10" y="378">  │ │ │ ├── forever-agent@0.6.1 </tspan>
<tspan x="10" y="394">  │ │ │ ├─┬ form-data@2.1.4 </tspan>
<tspan x="10" y="410">  │ │ │ │ └── asynckit@0.4.0 </tspan>
<tspan x="10" y="426">  │ │ │ ├─┬ har-validator@4.2.1 </tspan>
<tspan x="10" y="442">  │ │ │ │ ├─┬ ajv@4.11.7 </tspan>
<tspan x="10" y="458">  │ │ │ │ │ ├── co@4.6.0 </tspan>
<tspan x="10" y="474">  │ │ │ │ │ └─┬ json-stable-stringify@1.0.1 </tspan>
<tspan x="10" y="490">  │ │ │ │ │   └── jsonify@0.0.0 </tspan>
<tspan x="10" y="506">  │ │ │ │ └── har-schema@1.0.5 </tspan>
<tspan x="10" y="522">  │ │ │ ├─┬ hawk@3.1.3 </tspan>
<tspan x="10" y="538">  │ │ │ │ ├── boom@2.10.1 </tspan>
<tspan x="10" y="554">  │ │ │ │ ├── cryptiles@2.0.5 </tspan>
<tspan x="10" y="570">  │ │ │ │ ├── hoek@2.16.3 </tspan>
<tspan x="10" y="586">  │ │ │ │ └── sntp@1.0.9 </tspan>
<tspan x="10" y="602">  │ │ │ ├─┬ http-signature@1.1.1 </tspan>
<tspan x="10" y="618">  │ │ │ │ ├── assert-plus@0.2.0 </tspan>
<tspan x="10" y="634">  │ │ │ │ ├─┬ jsprim@1.4.0 </tspan>
<tspan x="10" y="650">  │ │ │ │ │ ├── assert-plus@1.0.0 </tspan>
<tspan x="10" y="666">  │ │ │ │ │ ├── extsprintf@1.0.2 </tspan>
<tspan x="10" y="682">  │ │ │ │ │ ├── json-schema@0.2.3 </tspan>
<tspan x="10" y="698">  │ │ │ │ │ └── verror@1.3.6 </tspan>
<tspan x="10" y="714">  │ │ │ │ └─┬ sshpk@1.13.0 </tspan>
<tspan x="10" y="730">  │ │ │ │   ├── asn1@0.2.3 </tspan>
<tspan x="10" y="746">  │ │ │ │   ├── assert-plus@1.0.0 </tspan>
<tspan x="10" y="762">  │ │ │ │   ├── bcrypt-pbkdf@1.0.1 </tspan>
<tspan x="10" y="778">  │ │ │ │   ├─┬ dashdash@1.14.1 </tspan>
<tspan x="10" y="794">  │ │ │ │   │ └── assert-plus@1.0.0 </tspan>
<tspan x="10" y="810">  │ │ │ │   ├── ecc-jsbn@0.1.1 </tspan>
<tspan x="10" y="826">  │ │ │ │   ├─┬ getpass@0.1.7 </tspan>
<tspan x="10" y="842">  │ │ │ │   │ └── assert-plus@1.0.0 </tspan>
<tspan x="10" y="858">  │ │ │ │   ├── jodid25519@1.0.2 </tspan>
<tspan x="10" y="874">  │ │ │ │   ├── jsbn@0.1.1 </tspan>
<tspan x="10" y="890">  │ │ │ │   └── tweetnacl@0.14.5 </tspan>
<tspan x="10" y="906">  │ │ │ ├── is-typedarray@1.0.0 </tspan>
<tspan x="10" y="922">  │ │ │ ├── isstream@0.1.2 </tspan>
<tspan x="10" y="938">  │ │ │ ├── json-stringify-safe@5.0.1 </tspan>
<tspan x="10" y="954">  │ │ │ ├─┬ mime-types@2.1.15 </tspan>
<tspan x="10" y="970">  │ │ │ │ └── mime-db@1.27.0 </tspan>
<tspan x="10" y="986">  │ │ │ ├── oauth-sign@0.8.2 </tspan>
<tspan x="10" y="1002">  │ │ │ ├── performance-now@0.2.0 </tspan>
<tspan x="10" y="1018">  │ │ │ ├── safe-buffer@5.0.1 </tspan>
<tspan x="10" y="1034">  │ │ │ ├── stringstream@0.0.5 </tspan>
<tspan x="10" y="1050">  │ │ │ ├─┬ tough-cookie@2.3.2 </tspan>
<tspan x="10" y="1066">  │ │ │ │ └── punycode@1.4.1 </tspan>
<tspan x="10" y="1082">  │ │ │ ├── tunnel-agent@0.6.0 </tspan>
<tspan x="10" y="1098">  │ │ │ └── uuid@3.0.1 </tspan>
<tspan x="10" y="1114">  │ │ └── vargs@0.1.0 </tspan>
<tspan x="10" y="1130">  │ ├── i@0.3.5 </tspan>
<tspan x="10" y="1146">  │ ├── node-uuid@1.4.8 </tspan>
<tspan x="10" y="1162">  │ ├── redis@0.12.1 </tspan>
<tspan x="10" y="1178">  │ ├── revalidator@0.3.1 </tspan>
<tspan x="10" y="1194">  │ └─┬ utile@0.3.0 </tspan>
<tspan x="10" y="1210">  │   ├── ncp@1.0.1 </tspan>
<tspan x="10" y="1226">  │   └─┬ rimraf@2.6.1 </tspan>
<tspan x="10" y="1242">  │     └─┬ glob@7.1.1 </tspan>
<tspan x="10" y="1258">  │       ├── fs.realpath@1.0.0 </tspan>
<tspan x="10" y="1274">  │       ├─┬ inflight@1.0.6 </tspan>
<tspan x="10" y="1290">  │       │ └── wrappy@1.0.2 </tspan>
<tspan x="10" y="1306">  │       ├── inherits@2.0.3 </tspan>
<tspan x="10" y="1322">  │       ├─┬ minimatch@3.0.3 </tspan>
<tspan x="10" y="1338">  │       │ └─┬ brace-expansion@1.1.7 </tspan>
<tspan x="10" y="1354">  │       │   ├── balanced-match@0.4.2 </tspan>
<tspan x="10" y="1370">  │       │   └── concat-map@0.0.1 </tspan>
<tspan x="10" y="1386">  │       ├── once@1.4.0 </tspan>
<tspan x="10" y="1402">  │       └── path-is-absolute@1.0.1 </tspan>
<tspan x="10" y="1418">  └─┬ utile@0.1.7 </tspan>
<tspan x="10" y="1434">    ├── async@0.1.22 </tspan>
<tspan x="10" y="1450">    ├── deep-equal@0.2.2 </tspan>
<tspan x="10" y="1466">    ├─┬ mkdirp@0.5.1 </tspan>
<tspan x="10" y="1482">    │ └── minimist@0.0.8 </tspan>
<tspan x="10" y="1498">    ├── ncp@0.2.7 </tspan>
<tspan x="10" y="1514">    └── rimraf@1.0.9</tspan>
</text>
</svg>
